<svg width="34" height="34" viewBox="0 0 34 34" fill="none" xmlns="http://www.w3.org/2000/svg">
<g clip-path="url(#clip0_357_397)">
<circle cx="17" cy="17" r="17" fill="#1F2C3A"/>
<path d="M17 14.4444C17.3575 14.4444 17.7115 14.374 18.0417 14.2372C18.372 14.1004 18.6721 13.8999 18.9249 13.6471C19.1777 13.3943 19.3782 13.0942 19.515 12.764C19.6518 12.4337 19.7222 12.0797 19.7222 11.7222C19.7222 11.3647 19.6518 11.0107 19.515 10.6805C19.3782 10.3502 19.1777 10.0501 18.9249 9.79732C18.6721 9.54454 18.372 9.34402 18.0417 9.20722C17.7115 9.07041 17.3575 9 17 9C16.278 9 15.5856 9.2868 15.0751 9.79732C14.5646 10.3078 14.2778 11.0002 14.2778 11.7222C14.2778 12.4442 14.5646 13.1366 15.0751 13.6471C15.5856 14.1576 16.278 14.4444 17 14.4444ZM10 22.5333V23H24V22.5333C24 20.7911 24 19.92 23.6609 19.2542C23.3626 18.6689 22.8867 18.1929 22.3013 17.8947C21.6356 17.5556 20.7644 17.5556 19.0222 17.5556H14.9778C13.2356 17.5556 12.3644 17.5556 11.6987 17.8947C11.1133 18.1929 10.6374 18.6689 10.3391 19.2542C10 19.92 10 20.7911 10 22.5333Z" stroke="white" stroke-width="2" stroke-linecap="round" stroke-linejoin="round"/>
</g>
<defs>
<clipPath id="clip0_357_397">
<rect width="34" height="34" fill="white"/>
</clipPath>
</defs>
</svg>
