<svg width="30" height="23" viewBox="0 0 30 23" fill="none" xmlns="http://www.w3.org/2000/svg">
<g clip-path="url(#clip0_576_383)">
<path d="M21.9953 16.1345C21.6653 16.1519 21.2589 16.1018 20.8547 16.1649C20.7088 16.1889 20.574 16.2433 20.4371 16.2934C20.4034 16.3064 20.3697 16.3217 20.3742 16.363C20.3787 16.4022 20.4124 16.4174 20.4461 16.4283C20.4797 16.437 20.5157 16.4436 20.5493 16.4436C21.0725 16.4501 21.6002 16.4719 22.1121 16.3434C22.4646 16.2564 22.8216 16.2672 23.1741 16.2912C23.731 16.3282 24.3305 16.9878 24.3327 17.5233C24.3327 17.5973 24.326 17.6735 24.3327 17.7453C24.3709 18.037 24.2182 18.2264 23.9735 18.3526C23.8298 18.4266 23.7736 18.4985 23.8141 18.6683C23.8814 18.9665 23.7422 19.1602 23.4279 19.2407C22.8037 19.3997 22.2962 19.1689 21.8224 18.801C21.2364 18.3417 20.7177 17.828 20.3854 17.1619C20.3675 17.1249 20.3428 17.0923 20.3158 17.0596C20.2507 16.9791 20.1766 16.9203 20.0666 16.9899C19.9476 17.0683 20.0037 17.1554 20.0621 17.2337C20.363 17.6321 20.6841 18.0152 21.0433 18.3679C21.2229 18.542 21.3577 18.7466 21.4632 18.9708C21.7843 19.65 21.5957 20.2486 21.1421 20.7972C20.9176 21.0693 20.6122 21.1128 20.3023 20.9299C20.2036 20.8712 20.1564 20.9038 20.0913 20.9691C19.7567 21.2956 19.3122 21.3152 18.9933 20.9691C18.4567 20.3879 18.2501 19.7697 18.6677 18.936C18.9349 18.407 19.146 17.8541 19.3683 17.3099C19.4177 17.1902 19.4087 17.0901 19.2919 17.0313C19.164 16.966 19.1258 17.0923 19.0719 17.1619C18.9933 17.262 18.9731 17.3839 18.9596 17.5058C18.8272 18.714 18.0884 19.4933 17.0129 20.0026C16.593 20.2029 16.1664 20.0788 15.897 19.7719C15.7915 19.65 15.751 19.5259 15.8251 19.3822C15.888 19.2625 15.8611 19.2081 15.7219 19.1646C15.2144 19.0057 15.0303 18.6269 15.2122 18.1502C15.5265 17.323 16.3326 16.7701 17.242 16.7744C17.7696 16.7766 18.286 16.7004 18.8025 16.6155C18.8676 16.6047 18.9349 16.5981 18.9327 16.5154C18.9327 16.4349 18.8923 16.3696 18.807 16.35C18.7104 16.3282 18.6116 16.3369 18.5173 16.363C18.0637 16.4958 17.5877 16.5263 17.1274 16.6242C16.2944 16.8027 15.5737 16.5459 14.9674 15.969C14.7339 15.747 14.6239 15.4771 14.5902 15.1767C14.552 14.8262 14.817 14.5215 15.1897 14.4714C15.3154 14.454 15.4098 14.4496 15.293 14.3016C15.2481 14.2428 15.275 14.171 15.293 14.1057C15.4569 13.5093 16.0227 13.2959 16.5504 13.4135C17.1544 13.5484 17.709 13.7988 18.1558 14.2385C18.4073 14.4866 18.4769 14.8175 18.6273 15.1114C18.7553 15.3595 18.8586 15.6186 19.0494 15.8319C19.1101 15.9015 19.1797 15.9908 19.2964 15.9168C19.4177 15.8384 19.3436 15.747 19.2964 15.6686C19.0427 15.2398 18.789 14.8132 18.5285 14.3887C18.4769 14.3038 18.4005 14.2254 18.3175 14.1666C18.0256 13.9533 17.8751 13.6812 17.8706 13.3199C17.8639 12.7691 17.929 12.2511 18.3916 11.8614C18.6228 11.6655 19.0697 11.6394 19.3032 11.8288C19.4289 11.9311 19.5053 11.9398 19.6332 11.8157C19.8016 11.6546 20.0352 11.6329 20.2619 11.6916C20.7963 11.8288 21.059 12.201 21.1758 12.6973C21.2476 12.9999 21.1937 13.3003 21.1758 13.605C21.1488 14.1362 20.9198 14.5585 20.5291 14.9242C20.3495 15.0918 20.2125 15.3008 20.0576 15.4923C20.0329 15.5228 20.0082 15.5598 19.9947 15.5968C19.9633 15.686 19.9117 15.7949 20.0105 15.858C20.1205 15.9277 20.1923 15.8188 20.244 15.747C20.583 15.2833 20.9086 14.811 21.2566 14.3538C21.6069 13.8967 22.0537 13.568 22.6353 13.4178C23.1068 13.2959 23.5805 13.568 23.6434 14.0339C23.6614 14.1732 23.713 14.2515 23.85 14.3016C24.0364 14.3669 24.1307 14.5062 24.1643 14.6978C24.2968 15.4553 23.713 16.141 22.9204 16.1453C22.633 16.1453 22.3479 16.1453 21.9864 16.1453L21.9953 16.1345ZM21.315 17.1684C21.3689 17.1684 21.4295 17.1532 21.452 17.0835C21.4744 17.0117 21.4273 16.9704 21.3689 16.9377C21.1017 16.7853 20.7986 16.7331 20.5089 16.6373C20.4348 16.6134 20.3495 16.6112 20.3203 16.7048C20.2934 16.7919 20.3248 16.8637 20.4079 16.9094C20.6863 17.0596 20.9894 17.1271 21.315 17.1641V17.1684ZM20.4595 16.1258C20.7761 16.043 21.0478 15.8384 21.2948 15.599C21.324 15.5707 21.333 15.525 21.3038 15.4858C21.2723 15.4401 21.2207 15.4357 21.1735 15.4444C20.8278 15.4988 20.574 15.7143 20.3158 15.919C20.2732 15.9516 20.2552 16.0126 20.2799 16.067C20.3068 16.1279 20.3675 16.1236 20.4573 16.1258H20.4595ZM18.8474 16.239C18.9551 16.2455 19.0292 16.215 19.0629 16.1279C19.0966 16.0387 19.0405 15.9886 18.9664 15.9516C18.8676 15.9015 18.7688 15.8515 18.6677 15.8079C18.5151 15.7405 18.3624 15.6752 18.2074 15.6186C18.1468 15.5968 18.0817 15.6142 18.0368 15.6643C17.9964 15.7122 18.0233 15.7557 18.0593 15.7905C18.286 16.0082 18.5667 16.141 18.8496 16.239H18.8474ZM19.4693 15.292C19.4693 15.3922 19.4671 15.4945 19.4693 15.5946C19.4738 15.6948 19.4895 15.7884 19.6265 15.7884C19.7567 15.7884 19.7657 15.6882 19.7724 15.6033C19.7927 15.3486 19.7994 15.0918 19.7545 14.8371C19.7433 14.7783 19.7455 14.7043 19.6647 14.6956C19.5816 14.6847 19.5434 14.75 19.5142 14.8132C19.4424 14.9677 19.4716 15.131 19.4671 15.292H19.4693ZM19.0966 16.8528C19.0741 16.7418 18.9978 16.744 18.9192 16.757C18.6139 16.8093 18.4095 17.0226 18.185 17.2033C18.1356 17.2446 18.1221 17.3099 18.176 17.3665C18.2277 17.421 18.2905 17.4144 18.3489 17.3839C18.5892 17.2599 18.8227 17.1249 19.0248 16.9442C19.0539 16.9181 19.0741 16.8811 19.0966 16.8528ZM19.9184 17.5842C19.9184 17.4514 19.9274 17.3361 19.86 17.2337C19.8174 17.1684 19.7724 17.1053 19.6804 17.1184C19.5951 17.1314 19.5816 17.2076 19.5659 17.2708C19.5389 17.3774 19.5479 17.4841 19.5793 17.5907C19.6175 17.7126 19.6085 17.8998 19.8016 17.8737C19.9723 17.8498 19.8937 17.6778 19.9162 17.5842H19.9184Z" fill="white"/>
<path d="M11.0942 18.7293C10.7305 18.7554 10.4184 18.6248 10.104 18.5181C9.84807 18.431 9.60108 18.3113 9.3294 18.2743C9.28898 18.2678 9.24632 18.2591 9.20366 18.2613C9.12507 18.2613 9.03526 18.2678 9.00831 18.3483C8.97912 18.4419 9.06894 18.4833 9.1363 18.5072C9.38329 18.6008 9.63027 18.6901 9.89747 18.7206C10.3196 18.7684 10.744 18.7989 11.1369 18.9883C11.5096 19.169 11.8038 19.4389 12.0508 19.748C12.3516 20.1246 12.3651 20.5491 12.1338 20.967C12.0193 21.1738 11.8262 21.2979 11.5837 21.3262C11.4737 21.3392 11.4265 21.3719 11.4176 21.4829C11.3794 21.8921 10.9999 22.1512 10.5688 22.075C10.0479 21.9814 9.67518 21.6745 9.36308 21.2892C8.93197 20.7559 8.75235 20.1289 8.68499 19.4672C8.66702 19.2865 8.65355 19.1037 8.62885 18.923C8.61762 18.8446 8.59517 18.7445 8.48739 18.7554C8.38635 18.7663 8.40881 18.8642 8.39758 18.9361C8.32798 19.3671 8.55027 19.7371 8.66253 20.1311C8.93646 21.102 8.64457 22.0358 7.56905 22.4298C7.29961 22.5299 7.11549 22.3645 6.97179 22.1969C6.83482 22.0402 6.73378 21.9988 6.53619 22.0946C6.28247 22.2187 5.96812 22.075 5.81768 21.7681C5.56845 21.2543 5.55498 20.7189 5.7638 20.1921C5.99507 19.613 6.39249 19.1842 7.01221 18.9557C7.27042 18.8599 7.51067 18.7119 7.75541 18.5834C7.84523 18.5355 7.96648 18.4833 7.88789 18.3549C7.8093 18.2264 7.69254 18.2852 7.59824 18.3483C7.29961 18.5486 7.02119 18.7793 6.70684 18.9535C5.99507 19.3453 5.25186 19.3845 4.50416 19.0362C4.24595 18.9165 4.05958 18.7162 3.9316 18.4637C3.81484 18.2373 3.83729 18.0349 3.99896 17.8411C4.0259 17.8107 4.0506 17.778 4.07979 17.7475C4.22798 17.6039 4.34699 17.4776 4.09775 17.2969C3.96079 17.1968 3.98549 17.0052 4.06856 16.8638C4.23472 16.5808 4.47273 16.374 4.80953 16.276C5.72114 16.0104 6.48455 16.2543 7.14468 16.8812C7.38269 17.1076 7.62518 17.3339 7.83625 17.5864C7.87891 17.6387 7.9328 17.6844 7.98893 17.7214C8.02935 17.7475 8.08548 17.7519 8.12365 17.7105C8.15733 17.6757 8.13937 17.6343 8.12365 17.5973C8.05404 17.4406 7.95974 17.2991 7.82053 17.1903C7.72847 17.1184 7.63641 17.0401 7.53537 16.9857C6.68439 16.5351 6.45985 15.7928 6.50251 14.9264C6.51599 14.6478 6.63948 14.4062 6.85728 14.2146C7.11998 13.9839 7.40739 13.9011 7.7397 14.0644C7.82502 14.1058 7.90585 14.158 8.00465 14.0644C8.25388 13.8315 8.62212 13.7684 8.93197 13.9164C9.21039 14.0492 9.47085 14.2277 9.60557 14.5041C9.99851 15.3095 10.0793 16.1563 9.36532 16.8028C9.16324 16.9857 9.00158 17.212 8.8242 17.421C8.7501 17.5059 8.67151 17.6104 8.79501 17.6996C8.9185 17.7889 9.02403 17.7062 9.09364 17.606C9.30919 17.2904 9.52923 16.9791 9.7156 16.6461C10.0838 15.9909 10.6474 15.6404 11.4265 15.6317C11.5747 15.6317 11.7184 15.6643 11.8532 15.7209C12.1316 15.8385 12.3202 16.0235 12.291 16.3413C12.273 16.5416 12.3426 16.6635 12.538 16.7549C12.8321 16.8921 12.9713 17.2229 12.8928 17.5255C12.7648 18.0262 12.3988 18.3353 11.9452 18.5464C11.678 18.6705 11.3839 18.7576 11.0897 18.7227L11.0942 18.7293ZM9.34736 18.0653C9.54495 18.0893 9.71335 17.9587 9.90196 17.8999C10.003 17.8673 10.0861 17.8128 10.0524 17.6975C10.0165 17.5777 9.89971 17.5864 9.80766 17.6082C9.60557 17.6583 9.40798 17.7214 9.21039 17.7867C9.12507 17.815 9.02628 17.8607 9.04424 17.9652C9.06445 18.0806 9.17896 18.0566 9.26653 18.0653C9.28674 18.0653 9.30919 18.0653 9.34736 18.0653ZM8.87135 18.6052C8.76357 18.6052 8.70519 18.6683 8.76133 18.7597C8.9185 19.0144 9.09364 19.2582 9.33389 19.4476C9.38329 19.4868 9.45065 19.5086 9.50678 19.4607C9.57639 19.4041 9.54271 19.3344 9.50453 19.2778C9.3788 19.0993 9.24857 18.923 9.11609 18.751C9.05771 18.6727 8.97688 18.6182 8.8691 18.6052H8.87135ZM7.44331 18.0741C7.44331 18.0741 7.44331 18.0675 7.44331 18.0653C7.51965 18.0653 7.59599 18.0653 7.67234 18.0653C7.7599 18.0632 7.87666 18.0762 7.89238 17.9652C7.91034 17.8498 7.79583 17.8107 7.70377 17.7867C7.49945 17.7323 7.29063 17.7628 7.08406 17.7606C7.00098 17.7606 6.90668 17.7693 6.89994 17.8781C6.8932 17.9739 6.9673 18.0305 7.05038 18.0436C7.17836 18.0653 7.31084 18.0653 7.44331 18.0741ZM8.18652 18.8272C8.17754 18.7489 8.20673 18.6727 8.13488 18.6444C8.05629 18.6139 8.00465 18.6792 7.96199 18.7293C7.82502 18.886 7.75317 19.0776 7.66785 19.2604C7.63866 19.3235 7.65886 19.3801 7.72173 19.4171C7.78011 19.452 7.83625 19.428 7.87217 19.3867C8.02036 19.2169 8.15508 19.0384 8.18877 18.8294L8.18652 18.8272ZM8.31899 17.0705C8.30777 17.2077 8.33696 17.3383 8.37064 17.4689C8.38635 17.5255 8.40432 17.5995 8.47841 17.6017C8.57047 17.6017 8.57945 17.519 8.58844 17.4558C8.61762 17.212 8.55026 16.9748 8.54802 16.7331C8.54802 16.6831 8.51883 16.6395 8.46045 16.6395C8.4133 16.6395 8.38635 16.6765 8.37288 16.7157C8.33247 16.8311 8.31001 16.9508 8.31899 17.0727V17.0705Z" fill="white"/>
<path d="M17.5406 7.58404C17.81 7.71465 18.0705 7.85614 18.2636 8.0847C18.5599 8.43734 18.7575 8.87706 18.4724 9.34942C18.3736 9.51486 18.2411 9.64111 18.0278 9.64111C17.8796 9.64111 17.7898 9.67376 17.7853 9.84138C17.7808 10.0068 17.6618 10.0874 17.5091 10.1331C17.0982 10.2528 16.6402 10.0874 16.3124 9.72601C15.8992 9.26888 15.8206 8.70944 15.7622 8.1413C15.7488 8.02158 15.7622 7.8975 15.7578 7.7756C15.742 7.45779 15.6455 7.35548 15.3356 7.31847C15.2817 7.31194 15.2391 7.33806 15.2032 7.36854C15.0415 7.51003 14.9831 7.70812 14.9045 7.89532C14.8911 7.92797 14.9045 7.9628 14.9382 7.98239C14.9809 8.00416 15.0213 7.98239 15.0572 7.9628C15.1919 7.88444 15.2503 7.75383 15.3109 7.62322C15.3356 7.57098 15.3446 7.48173 15.4187 7.49044C15.5018 7.50132 15.4704 7.58839 15.4726 7.64499C15.4906 7.96063 15.6343 8.24361 15.7128 8.54401C15.9037 9.28412 15.778 9.70859 15.1044 10.1701C14.9113 10.3029 14.689 10.3137 14.4622 10.3029C14.3118 10.2941 14.1928 10.2397 14.1119 10.1135C14.0648 10.0395 14.0041 9.9981 13.9053 10.0068C13.5169 10.0416 13.3058 9.87838 13.2497 9.50833C13.1374 8.75516 13.5506 7.88226 14.2399 7.64499C14.4959 7.55792 14.7204 7.39901 14.9809 7.3163C15.0729 7.28582 15.2121 7.22705 15.165 7.11821C15.1268 7.03331 14.9854 7.07467 14.9 7.11821C14.7024 7.21834 14.4824 7.30106 14.3207 7.44255C13.9907 7.73206 13.6 7.73206 13.2138 7.67982C12.767 7.62105 12.4032 7.39901 12.1675 7.00937C12.0148 6.75468 12.026 6.56095 12.2348 6.34545C12.3359 6.24096 12.3853 6.15824 12.2887 6.01457C12.1809 5.85131 12.3134 5.56833 12.5492 5.41595C12.9848 5.13297 13.4518 5.15039 13.9121 5.33324C14.3993 5.52697 14.7541 5.87961 15.0235 6.31279C15.0527 6.35851 15.0752 6.40857 15.1044 6.45428C15.165 6.55224 15.266 6.65455 15.3693 6.58489C15.4771 6.51088 15.3491 6.41946 15.2952 6.35198C15.1448 6.15606 14.9854 5.96668 14.7743 5.83172C14.6643 5.76206 14.5924 5.65976 14.543 5.54874C14.2938 4.99148 14.1411 4.42769 14.5475 3.87478C14.808 3.52214 15.0662 3.47643 15.4501 3.70064C15.5063 3.73329 15.5489 3.742 15.5983 3.69629C16.0564 3.2827 16.6267 3.75288 16.7704 4.15994C16.9186 4.58007 16.9298 4.9893 16.7704 5.40725C16.7233 5.53132 16.6536 5.63799 16.5593 5.72941C16.3932 5.89267 16.2248 6.05593 16.0564 6.21701C15.9913 6.28014 15.9351 6.34762 15.897 6.42816C15.8745 6.47605 15.8363 6.53047 15.8902 6.57619C15.9441 6.6219 15.9958 6.57619 16.0407 6.54789C16.3034 6.37157 16.4381 6.09729 16.5998 5.84914C16.9119 5.37024 17.2981 4.9893 17.8908 4.85652C18.2838 4.76727 18.634 4.90441 18.8541 5.22875C18.9304 5.34194 18.9843 5.45514 18.8855 5.58357C18.8204 5.66629 18.8765 5.71853 18.9372 5.77077C19.4042 6.19742 19.4019 6.5653 18.9551 7.0246C18.6183 7.37071 18.1715 7.44255 17.7269 7.52962C17.673 7.5405 17.6169 7.52962 17.5608 7.52962C17.5518 7.54704 17.545 7.56445 17.5361 7.58186L17.5406 7.58404ZM17.3811 7.51874C17.3811 7.45561 17.3519 7.44037 17.3272 7.43602C16.9994 7.37942 16.7188 7.21181 16.4156 7.09426C16.3236 7.05943 16.2293 7.03331 16.1305 7.04855C16.0699 7.05726 15.9913 7.05508 15.9778 7.12909C15.9666 7.19004 16.0317 7.21616 16.0788 7.24664C16.2832 7.37507 16.5234 7.40119 16.7502 7.45126C16.9545 7.49479 17.1678 7.49697 17.3789 7.51874H17.3811ZM16.2764 6.86788C16.4426 6.86352 16.6087 6.85046 16.7682 6.80039C16.8467 6.77645 16.9388 6.73944 16.9163 6.63714C16.8939 6.54136 16.7973 6.56095 16.7233 6.56312C16.5189 6.57183 16.3326 6.65455 16.1417 6.71115C16.0968 6.72421 16.0294 6.72203 16.0294 6.7808C16.0294 6.84828 16.0946 6.86135 16.1507 6.86788C16.1911 6.87223 16.2338 6.86788 16.2764 6.86788ZM14.662 6.58925C14.6126 6.58925 14.5655 6.58489 14.5161 6.58925C14.4644 6.5936 14.3859 6.5653 14.3679 6.62625C14.3477 6.69591 14.4263 6.72421 14.4757 6.75468C14.6665 6.87441 14.8821 6.87223 15.0976 6.85917C15.1403 6.85699 15.1829 6.84393 15.1942 6.79604C15.2076 6.74597 15.165 6.72856 15.1335 6.70244C14.9921 6.60013 14.8304 6.58054 14.6598 6.58489L14.662 6.58925ZM15.9104 7.34242C15.8386 7.3533 15.7892 7.37942 15.8341 7.44908C15.9441 7.61887 16.0496 7.79519 16.2136 7.9258C16.2562 7.96063 16.3079 8.00416 16.3618 7.96716C16.4224 7.9258 16.4067 7.85396 16.3775 7.80172C16.2832 7.64281 16.1709 7.49915 16.0205 7.38595C15.989 7.36201 15.9441 7.35548 15.9104 7.34242ZM15.7622 6.16259C15.7622 6.16259 15.7622 6.16259 15.76 6.16259C15.76 6.05593 15.7667 5.94709 15.7578 5.84043C15.751 5.76642 15.7016 5.72724 15.6298 5.79254C15.5602 5.85567 15.5153 6.33456 15.5647 6.41946C15.5938 6.46735 15.6275 6.51523 15.6904 6.5087C15.769 6.50217 15.7578 6.43469 15.76 6.38245C15.7645 6.30844 15.76 6.23443 15.76 6.16042L15.7622 6.16259Z" fill="white"/>
<path d="M22.8711 19.5192C23.2797 19.5954 23.6569 19.7761 23.996 20.0329C24.0297 20.0569 24.0521 20.0939 24.0858 20.1178C24.1352 20.1527 24.1981 20.2114 24.2497 20.1461C24.3036 20.0765 24.216 20.046 24.1711 20.009C24.0162 19.8784 23.8253 19.8066 23.6457 19.7173C23.5514 19.6694 23.4548 19.6172 23.4548 19.4975C23.4548 19.3777 23.5716 19.3843 23.6502 19.3494C23.9062 19.2406 24.0117 19.0294 24.0139 18.7813C24.0139 18.581 24.106 18.4482 24.2564 18.335C24.3709 18.2502 24.4585 18.1478 24.4832 18.0064C24.5057 17.8757 24.582 17.8953 24.6628 17.9498C24.9615 18.1544 25.3162 18.7465 25.0737 19.184C24.9682 19.3734 24.8874 19.578 24.7527 19.7521C24.6786 19.8501 24.6337 19.9633 24.692 20.0743C24.7504 20.181 24.8784 20.181 24.9907 20.181C25.1411 20.181 25.2826 20.1461 25.3971 20.0482C25.4375 20.0155 25.4599 19.972 25.4263 19.9219C25.3993 19.8827 25.3567 19.8849 25.314 19.8958C25.2085 19.9176 25.1254 19.9807 25.0378 20.0373C24.9794 20.0743 24.838 20.2267 24.7774 20.181C24.6988 20.1222 24.8447 19.9524 24.8694 19.8958C24.9862 19.6433 25.0962 19.3864 25.2219 19.1383C25.3903 18.8074 25.6508 18.5745 26.0213 18.47C26.3828 18.3677 26.6949 18.5505 26.76 18.9054C26.7712 18.962 26.7847 19.0055 26.8431 19.0338C27.1978 19.2101 27.2899 19.5279 27.0833 19.861C26.8431 20.2463 26.403 20.4487 25.9404 20.3834C25.6575 20.3442 25.3746 20.2855 25.0872 20.3508C25.0086 20.3682 24.8941 20.3268 24.8649 20.4226C24.8335 20.5314 24.8425 20.6577 24.9255 20.7491C25.0176 20.8514 25.1411 20.9211 25.2758 20.9646C25.3162 20.9777 25.3611 20.9907 25.3881 20.945C25.4128 20.9058 25.3926 20.8645 25.3634 20.834C25.2915 20.7556 25.195 20.7143 25.0939 20.686C25.0445 20.6707 24.8043 20.612 24.8111 20.5532C24.8178 20.4944 25.067 20.5162 25.1164 20.514C25.4914 20.4988 25.8619 20.4008 26.2413 20.4705C26.5714 20.5314 26.8453 20.6795 27.0631 20.9233C27.3348 21.228 27.2517 21.6655 26.8925 21.8549C26.8251 21.8898 26.8139 21.9333 26.8139 22.0008C26.8139 22.2685 26.531 22.4949 26.2593 22.4165C25.6688 22.2446 25.2085 21.9202 24.9839 21.3368C24.9188 21.1671 24.847 20.9973 24.7774 20.8275C24.7616 20.7883 24.7324 20.7491 24.6853 20.7622C24.6269 20.7774 24.6539 20.8275 24.6584 20.8645C24.683 21.0887 24.8245 21.265 24.9368 21.45C25.2152 21.905 25.1456 22.3273 24.8582 22.7431C24.6606 23.0304 24.4742 23.0761 24.1576 22.9194C24.0813 22.8824 24.0162 22.8867 23.9398 22.915C23.6861 23.0064 23.4661 22.9172 23.3583 22.6756C23.163 22.2467 23.2101 21.4696 23.7243 21.1279C23.8837 21.0212 24.0229 20.8841 24.1689 20.76C24.234 20.7056 24.3013 20.6446 24.2564 20.5532C24.2093 20.4574 24.1644 20.3529 24.0364 20.3246C24.0297 20.3246 24.0229 20.3225 24.0162 20.3225C23.8725 20.3333 23.6457 20.3094 23.6322 20.4357C23.6188 20.5619 23.8343 20.4901 23.9488 20.5118C24.0072 20.5227 24.234 20.477 24.2564 20.5532C24.2744 20.6141 24.0611 20.6577 24.0184 20.6903C23.8747 20.7992 23.7557 20.932 23.6345 21.0626C23.3852 21.3368 22.7992 21.6372 22.2873 21.3673C22.0942 21.265 21.9101 21.1322 21.8876 20.9254C21.8629 20.6751 21.9684 20.4226 21.8741 20.1614C21.8404 20.0678 21.9729 19.9459 22.0695 19.8653C22.2918 19.6803 22.5432 19.5606 22.8621 19.5301L22.8711 19.5192Z" fill="white"/>
<path d="M15.7286 9.85862C15.8139 9.93263 15.8184 10.0001 15.8206 10.0676C15.87 11.1756 15.7735 12.2662 15.4277 13.3284C15.3918 13.4373 15.3289 13.5374 15.2728 13.6375C15.2076 13.7507 15.1291 13.8639 15.1246 13.9924C15.1178 14.1774 15.0348 14.2666 14.8551 14.321C14.5992 14.3994 14.4869 14.6258 14.4599 14.8522C14.4285 15.1265 14.3656 15.4182 14.552 15.6772C14.5879 15.7273 14.5834 15.7751 14.5228 15.8143C14.3769 15.9123 14.4465 15.9885 14.5543 16.0603C14.9427 16.3237 15.302 16.6263 15.7241 16.844C15.8296 16.8984 15.8251 16.9659 15.7443 17.0333C15.5714 17.1835 15.4322 17.3599 15.2862 17.534C15.2076 17.6276 15.1336 17.6298 15.0392 17.5492C14.6306 17.1966 14.1613 16.9288 13.71 16.635C13.4226 16.4478 13.1307 16.4129 12.8164 16.5283C12.6771 16.5784 12.6031 16.5653 12.5986 16.4064C12.5941 16.1931 12.4549 16.0298 12.3695 15.847C12.3134 15.7273 12.3134 15.6728 12.4863 15.638C12.9376 15.5509 13.3305 15.3724 13.5977 14.961C14.2264 13.9945 14.5947 12.9453 14.7968 11.8286C14.8664 11.4412 14.9449 11.058 14.9225 10.664C14.918 10.5791 14.936 10.503 15.0235 10.4572C15.302 10.3114 15.5579 10.1394 15.7331 9.85645L15.7286 9.85862Z" fill="#1F1A28"/>
<path d="M2.29704 17.963C1.73571 17.8759 1.1609 17.9956 0.610791 17.8084C0.435655 17.7475 0.321142 17.6626 0.265009 17.4928C0.184177 17.249 0.0988536 17.0052 0.0135307 16.7636C5.86114e-05 16.7244 -0.0156588 16.6808 0.0247574 16.6525C0.0404747 16.6417 0.0786455 16.6438 0.101099 16.6525C0.754493 16.9377 1.4483 16.9704 2.14885 16.966C2.43625 16.966 2.71917 16.9486 2.99085 16.8397C3.17946 16.7636 3.34113 16.6525 3.41747 16.4697C3.64874 15.8994 3.99901 15.3726 4.09107 14.7522C4.1225 14.5367 4.14271 14.3212 4.07535 14.11C4.03045 13.9664 4.05963 13.8597 4.18537 13.7726C4.21456 13.7531 4.23926 13.7291 4.26621 13.7073C4.35153 13.6464 4.40317 13.4962 4.52891 13.5484C4.64567 13.5963 4.69956 13.7313 4.71078 13.8532C4.72875 14.0426 4.80958 14.0099 4.92409 13.9315C5.34622 13.6355 5.80651 13.4156 6.30498 13.2633C6.51604 13.198 6.75404 13.2176 6.93816 13.0717C6.95837 13.0543 6.99654 13.0521 7.01226 13.0804C7.04369 13.1348 7.00552 13.1762 6.96511 13.2001C6.78772 13.309 6.6081 13.4113 6.43071 13.518C5.89183 13.8379 5.40459 14.2189 4.97573 14.6673C4.86796 14.7805 4.87469 14.9046 4.89715 15.0265C4.93981 15.2659 4.89715 15.4988 4.87694 15.7339C4.85898 15.932 4.76018 16.0757 4.55361 16.1671C3.99677 16.4131 3.68691 16.8223 3.89573 17.4297C3.94288 17.5646 3.89348 17.6669 3.78795 17.7518C3.65547 17.8607 3.49605 17.9151 3.32541 17.9194C2.98412 17.9303 2.64058 17.9194 2.30378 17.963H2.29704Z" fill="#1F1A28"/>
<path d="M17.0668 13.2653C17.0377 13.2588 16.9905 13.2479 16.9433 13.237C16.6627 13.1717 16.3798 13.1565 16.0924 13.2109C16.025 13.224 15.9172 13.2718 15.888 13.1869C15.8633 13.1173 15.9621 13.0694 16.025 13.028C16.2338 12.8909 16.4449 12.7581 16.6515 12.621C17.1117 12.3141 17.5586 11.9919 17.9987 11.6567C18.816 11.0341 19.3863 10.2417 19.7994 9.32967C20.1497 8.55473 20.5696 7.81462 21.0119 7.08757C21.068 6.99615 21.1399 6.97003 21.2117 7.05057C21.3442 7.19641 21.5081 7.21383 21.6878 7.19859C21.7259 7.19424 21.7776 7.18771 21.7933 7.23777C21.8045 7.27478 21.7708 7.29872 21.7416 7.31614C21.2746 7.60347 21.0411 8.0606 20.8233 8.52208C20.5022 9.19689 20.2305 9.89346 19.8241 10.5291C19.6557 10.7925 19.4828 11.0559 19.3212 11.3236C19.2718 11.4042 19.2156 11.4455 19.1213 11.4368C18.4343 11.3693 17.8954 11.8809 17.7472 12.5296C17.727 12.621 17.7023 12.7146 17.6798 12.806C17.6259 13.0215 17.3116 13.2675 17.0646 13.2675L17.0668 13.2653Z" fill="#1F1A28"/>
<path d="M9.88848 4.50156C9.89746 4.41884 9.83234 4.26646 9.91542 4.18592C10.0142 4.09014 10.14 4.22946 10.259 4.24687C10.5958 4.29911 10.5958 4.30782 10.5845 4.64523C10.58 4.76713 10.5711 4.88903 10.5419 5.00657C10.3375 5.84028 10.4431 6.68923 10.4206 7.52948C10.4116 7.83423 10.4206 8.1368 10.4184 8.44155C10.4184 8.48509 10.4363 8.54604 10.378 8.56563C10.3218 8.58304 10.2926 8.52862 10.2634 8.4938C10.2028 8.42632 10.14 8.36537 10.0524 8.33054C9.93338 8.28482 9.89072 8.1934 9.88848 8.07367C9.87949 7.63396 9.71783 7.28785 9.31816 7.03752C8.48514 6.51509 7.95748 5.75321 7.58925 4.87597C7.56904 4.82808 7.53087 4.77366 7.57577 4.72359C7.62293 4.66917 7.67906 4.72577 7.72846 4.72577C7.95748 4.72577 8.06077 4.86073 8.15507 5.04358C8.46268 5.64655 8.98136 6.05579 9.55841 6.4019C9.63251 6.44761 9.71783 6.47809 9.71558 6.34965C9.69987 5.73798 9.88623 5.14589 9.89072 4.49938L9.88848 4.50156Z" fill="#1F1A28"/>
<path d="M20.994 11.6458C20.9042 11.6458 20.8817 11.7183 20.8817 11.7546L20.994 11.9723C21.0314 12.0086 21.1287 12.0811 21.2185 12.0811C21.3083 12.0811 21.4056 12.0086 21.443 11.9723L21.6676 11.7546L22.0044 11.4281C22.0942 11.341 22.1167 11.2467 22.1167 11.2104L21.8921 11.1016L21.6676 11.2104C21.5553 11.283 21.3083 11.4498 21.2185 11.5369C21.1062 11.6458 21.1062 11.6458 20.994 11.6458Z" fill="#1F1A28"/>
<path d="M10.7103 -2.04722e-05C10.7731 0.613835 10.7103 1.22769 10.8495 1.83719C10.8629 1.66523 10.8719 1.49108 10.8899 1.31912C10.8966 1.25164 11.0208 0.940354 11.0021 1.08833C11.0134 1.24065 11.0021 1.45838 11.0021 1.52368C11.0021 1.74136 11.1324 1.68699 11.1795 1.86985C11.3524 2.54247 11.2042 3.16721 10.8517 3.75495C10.7395 3.93998 10.5643 4.06188 10.333 4.03793C10.1085 4.01616 9.98277 3.8529 9.89969 3.66788C9.59433 2.98654 9.65944 2.31391 9.96256 1.64999C10.0075 1.54986 10.0614 1.45843 10.0614 1.34524C10.104 0.979486 10.104 0.652967 10.104 0.652967C10.104 0.652967 10.3173 1.06661 10.3443 0.940354C10.4116 0.609482 10.5486 0.302554 10.7103 -0.00219727V-2.04722e-05Z" fill="#1F1A28"/>
<path d="M27.1282 18.9773C27.6379 19.0078 28.0892 19.1884 28.5113 19.441C29.0794 19.7784 29.4903 20.2572 29.8158 20.8123C29.8405 20.8537 29.8675 20.8929 29.8855 20.9364C29.9191 21.0148 30.0471 21.0888 29.982 21.1584C29.9079 21.239 29.8518 21.1018 29.7822 21.0735C29.0569 20.7906 28.3564 20.451 27.6042 20.2377C27.5166 20.2137 27.429 20.1985 27.337 20.1941C27.1372 20.1876 27.0922 20.1092 27.2135 19.9394C27.346 19.7501 27.4088 19.5563 27.3639 19.3299C27.3347 19.1819 27.2584 19.0709 27.1304 18.9773H27.1282Z" fill="#1F1A28"/>
<path d="M23.0225 12.6667C23.3233 12.6667 23.5817 12.6667 23.8379 12.6667C23.9091 12.6667 24.0228 12.6339 24.025 12.7943C24.0294 12.9839 23.9069 12.9511 23.8312 12.9511C23.4703 12.9583 23.1094 12.9583 22.7507 12.9511C22.2941 12.9474 21.9131 13.3011 21.5211 13.611C21.4721 13.6474 21.432 13.7532 21.374 13.6985C21.3094 13.6401 21.3362 13.5162 21.3362 13.4177C21.3317 13.1297 21.4409 13.0057 21.5946 12.9219C22.0758 12.663 22.5658 12.5719 23.0248 12.6557L23.0225 12.6667Z" fill="#1F1A28"/>
<path d="M13.0926 9.36882C13.0858 9.46896 13.0476 9.5865 12.9309 9.63657C12.8231 9.68228 12.7849 9.56256 12.7198 9.51031C12.6615 9.46243 12.6076 9.41018 12.5469 9.36447C12.3696 9.23822 12.3718 9.20339 12.5627 9.11632C12.5874 9.10543 12.6121 9.09237 12.639 9.08149C12.9893 8.90734 13.097 8.97047 13.0948 9.36882H13.0926Z" fill="#1F1A28"/>
<path d="M8.17069 3.11405C8.01765 3.16739 7.86837 3.15161 7.72093 3.14572C7.60085 3.14084 7.4808 3.12177 7.35985 3.13888C7.34174 3.14101 7.32241 3.14253 7.30435 3.14843C7.27063 3.15768 7.23285 3.17089 7.23074 3.20645C7.2292 3.24754 7.2726 3.2536 7.30432 3.25529C7.42131 3.26386 7.53779 3.27067 7.65604 3.25147C7.84283 3.22102 8.02854 3.18331 8.21941 3.21322C8.40059 3.24199 8.55852 3.31592 8.70081 3.41116C8.87415 3.5272 8.92977 3.69633 8.87958 3.89166C8.85471 3.98832 8.78641 4.06096 8.68566 4.10089C8.63997 4.1191 8.62357 4.13778 8.63275 4.18349C8.66441 4.35258 8.53197 4.50145 8.338 4.52157C8.10345 4.54526 7.90745 4.4657 7.72826 4.34748C7.48063 4.18375 7.32994 3.95275 7.22333 3.69453C7.19441 3.62398 7.16716 3.55202 7.13535 3.48227C7.12133 3.45207 7.09994 3.41444 7.05496 3.43151C7.01288 3.44778 7.03401 3.48454 7.03763 3.51475C7.05836 3.6963 7.19721 3.81896 7.29165 3.9642C7.52319 4.32242 7.50756 4.73238 7.09223 5.01749C6.98835 5.08949 6.8899 5.04463 6.80855 4.99414C6.73137 4.94723 6.68315 4.94249 6.60959 5.00428C6.51527 5.08406 6.36349 5.06329 6.26289 4.95755C6.09561 4.78028 6.02696 4.5665 6.05473 4.33004C6.08601 4.06992 6.20623 3.85065 6.44536 3.68575C6.54493 3.61683 6.63067 3.52901 6.72063 3.44853C6.75355 3.4187 6.79945 3.38341 6.75065 3.34101C6.70184 3.29861 6.65863 3.33599 6.62557 3.37249C6.52092 3.48819 6.42851 3.61378 6.31405 3.72083C6.05457 3.96223 5.74021 4.0655 5.37842 4.01346C5.25355 3.99571 5.15005 3.93711 5.06548 3.85062C4.98879 3.77332 4.97466 3.68925 5.0213 3.5923C5.02928 3.57687 5.03605 3.56083 5.045 3.54513C5.09173 3.4699 5.12798 3.40511 4.9998 3.36179C4.92927 3.33764 4.91738 3.25769 4.93642 3.191C4.97451 3.05762 5.05237 2.94643 5.18542 2.86737C5.54548 2.65322 5.90175 2.66139 6.25866 2.8358C6.38739 2.89883 6.51804 2.96133 6.63827 3.03804C6.66271 3.05402 6.6912 3.06606 6.71964 3.07434C6.74005 3.08009 6.76465 3.07523 6.77618 3.0541C6.78655 3.03612 6.77398 3.0216 6.76289 3.00857C6.71462 2.95373 6.65753 2.90793 6.58501 2.88054C6.53707 2.86249 6.48836 2.84181 6.4386 2.83182C6.02048 2.7508 5.83697 2.47869 5.75356 2.12521C5.72663 2.01156 5.75126 1.89984 5.82225 1.79715C5.9079 1.67342 6.02154 1.60631 6.18332 1.63284C6.2248 1.63943 6.26562 1.65092 6.29704 1.60164C6.37665 1.47862 6.52728 1.40987 6.67764 1.43292C6.81272 1.45354 6.94546 1.49466 7.03574 1.58999C7.29894 1.86766 7.43304 2.19871 7.20251 2.54281C7.13725 2.64015 7.09444 2.75023 7.04285 2.85517C7.02102 2.89804 6.99955 2.94931 7.06303 2.97067C7.12651 2.99202 7.16209 2.94633 7.18021 2.89786C7.23566 2.74553 7.29355 2.59443 7.33444 2.43853C7.41555 2.13164 7.61628 1.92433 7.94964 1.82909C8.01324 1.81164 8.07875 1.80785 8.14321 1.81475C8.2765 1.82924 8.37917 1.88145 8.40396 2.01271C8.41976 2.09537 8.46395 2.13621 8.55852 2.14998C8.70086 2.1705 8.79945 2.28718 8.80124 2.41813C8.8051 2.63457 8.68431 2.80198 8.51445 2.94031C8.41434 3.02168 8.29832 3.09133 8.168 3.11196L8.17069 3.11405ZM7.34303 3.05272C7.43064 3.03908 7.48758 2.96672 7.56162 2.92088C7.60115 2.89585 7.63042 2.86418 7.60242 2.82174C7.57295 2.77782 7.52386 2.79507 7.4869 2.81466C7.40605 2.85859 7.32866 2.90725 7.25153 2.95678C7.21823 2.97821 7.1812 3.00823 7.20118 3.04813C7.2234 3.09216 7.26973 3.06904 7.30833 3.06223C7.31701 3.05985 7.32664 3.05721 7.34303 3.05272ZM7.20211 3.32589C7.15586 3.33858 7.13821 3.37084 7.17304 3.401C7.2704 3.48493 7.37418 3.56237 7.49953 3.61025C7.52533 3.62019 7.55679 3.62101 7.57526 3.59514C7.59849 3.56418 7.57586 3.54013 7.55283 3.52186C7.47791 3.46488 7.40132 3.4093 7.32427 3.35573C7.29002 3.33109 7.24894 3.31872 7.20115 3.32615L7.20211 3.32589ZM6.52688 3.28041C6.52688 3.28041 6.52611 3.27779 6.52585 3.27691C6.55862 3.26792 6.59138 3.25893 6.62415 3.24995C6.66147 3.23876 6.71312 3.23026 6.70683 3.18376C6.70099 3.13525 6.64724 3.13297 6.60492 3.13418C6.51084 3.13635 6.4248 3.1732 6.33589 3.19664C6.30024 3.20643 6.26078 3.22103 6.27067 3.2656C6.27903 3.30491 6.31747 3.31895 6.35466 3.31442C6.41214 3.30811 6.469 3.29251 6.52688 3.28041ZM6.93427 3.49583C6.92121 3.46537 6.9248 3.43129 6.89064 3.42837C6.85333 3.42536 6.83883 3.45771 6.8264 3.48287C6.78602 3.56203 6.77767 3.64754 6.76252 3.73113C6.75741 3.75995 6.77273 3.78033 6.80405 3.78782C6.8332 3.79495 6.85448 3.77871 6.86504 3.75784C6.9087 3.67211 6.94557 3.58445 6.93549 3.49644L6.93427 3.49583ZM6.78488 2.7737C6.79616 2.83018 6.82403 2.87927 6.85381 2.92783C6.8672 2.94875 6.8836 2.9764 6.91566 2.96855C6.95517 2.95771 6.94931 2.92338 6.94575 2.89694C6.92966 2.79544 6.87289 2.70795 6.84356 2.61103C6.83768 2.59089 6.82004 2.57682 6.79499 2.58369C6.77475 2.58925 6.76753 2.6073 6.76635 2.62465C6.76255 2.67581 6.76697 2.7266 6.78514 2.77457L6.78488 2.7737Z" fill="white"/>
<path d="M4.94557 11.9845C4.7903 12.0291 4.64267 12.0042 4.49632 11.9894C4.37712 11.9772 4.25875 11.9508 4.13746 11.9607C4.11932 11.9618 4.1 11.9622 4.0817 11.967C4.04763 11.9743 4.0093 11.9854 4.00519 12.0211C4.00135 12.0625 4.04418 12.0712 4.07565 12.0748C4.19156 12.0905 4.30706 12.1044 4.4258 12.0922C4.61335 12.0727 4.80024 12.0458 4.98845 12.0875C5.16709 12.1275 5.32004 12.2115 5.45624 12.3162C5.62215 12.4437 5.66795 12.6177 5.607 12.8117C5.57681 12.9077 5.50476 12.9769 5.40227 13.0111C5.35579 13.0267 5.33842 13.0446 5.34497 13.0912C5.36694 13.2637 5.22677 13.4059 5.03266 13.4145C4.79796 13.4243 4.60745 13.3322 4.43584 13.2022C4.1987 13.0221 4.0618 12.78 3.9703 12.5131C3.94551 12.4401 3.92245 12.3659 3.89474 12.2936C3.88249 12.2623 3.86333 12.2231 3.81762 12.2376C3.77483 12.2515 3.79379 12.2898 3.79568 12.3205C3.80607 12.5049 3.93729 12.637 4.02306 12.7892C4.23323 13.1645 4.19455 13.5772 3.76526 13.8398C3.65785 13.9061 3.56244 13.855 3.48435 13.7991C3.4102 13.7471 3.36249 13.7395 3.28583 13.7974C3.18749 13.8722 3.03765 13.8421 2.94353 13.7293C2.7871 13.5404 2.73085 13.3206 2.77181 13.0838C2.8176 12.8232 2.94957 12.6093 3.19678 12.4573C3.29974 12.3938 3.38999 12.3104 3.48402 12.2346C3.51846 12.2065 3.56612 12.1737 3.51996 12.1279C3.47379 12.0822 3.42869 12.1173 3.39374 12.1522C3.28309 12.2626 3.18408 12.3837 3.06416 12.4848C2.7924 12.7127 2.47381 12.7979 2.1168 12.7237C1.99356 12.6982 1.89389 12.6329 1.81463 12.5405C1.74269 12.4579 1.73337 12.3723 1.78524 12.2773C1.79405 12.2622 1.80169 12.2464 1.81148 12.2311C1.86222 12.158 1.90193 12.0949 1.77685 12.0434C1.70804 12.0148 1.70071 11.9335 1.72342 11.8673C1.76883 11.7351 1.85258 11.6276 1.9894 11.5558C2.35971 11.3615 2.7137 11.3912 3.05896 11.5887C3.18348 11.66 3.30994 11.7309 3.42523 11.8155C3.44865 11.8331 3.47632 11.847 3.50415 11.8571C3.52413 11.8641 3.54888 11.8607 3.56154 11.84C3.57287 11.8225 3.56118 11.8071 3.55088 11.7933C3.50595 11.7351 3.45174 11.6854 3.38113 11.6534C3.33445 11.6323 3.28715 11.6086 3.23821 11.5955C2.82679 11.4885 2.72308 11.1722 2.66003 10.8105C2.63965 10.6943 2.67046 10.5831 2.74687 10.4837C2.83907 10.3641 2.95591 10.3032 3.11538 10.3397C3.15627 10.3489 3.19624 10.3629 3.23027 10.3151C3.31642 10.1958 3.47016 10.1355 3.61845 10.1678C3.75168 10.1968 3.88143 10.2462 3.96587 10.3479C4.21207 10.6438 4.26329 11.0167 4.01453 11.3499C3.94411 11.4442 3.89532 11.5527 3.83807 11.6554C3.81393 11.6974 3.78968 11.7478 3.85164 11.7732C3.91359 11.7985 3.95156 11.7546 3.97232 11.7068C4.03608 11.5564 4.1022 11.4075 4.15166 11.2527C4.24967 10.948 4.61993 10.8315 4.95697 10.7555C5.02123 10.7417 5.08662 10.7418 5.15036 10.7527C5.28216 10.7753 5.38136 10.8342 5.39862 10.9681C5.40968 11.0524 5.45134 11.0963 5.54465 11.1159C5.68511 11.1452 5.77662 11.2688 5.77102 11.401C5.76265 11.6196 5.63304 11.7812 5.45624 11.9105C5.35205 11.9866 5.07384 11.9693 4.94301 11.9823L4.94557 11.9845ZM4.12558 11.8728C4.21351 11.8643 4.27424 11.7948 4.3505 11.753C4.39124 11.7301 4.42214 11.6999 4.39668 11.6554C4.36983 11.6093 4.32002 11.6238 4.28215 11.6413C4.19923 11.6808 4.11949 11.7252 4.03996 11.7705C4.00562 11.7901 3.96708 11.8182 3.98471 11.8596C4.00433 11.9054 4.05173 11.8849 4.09053 11.8803C4.09929 11.8784 4.10903 11.8763 4.12558 11.8728ZM3.96998 12.1399C3.92324 12.1499 3.90387 12.1814 3.93682 12.2139C4.02894 12.3044 4.12784 12.3888 4.24984 12.4447C4.27495 12.4563 4.30621 12.459 4.32604 12.434C4.3509 12.4042 4.32974 12.3785 4.30786 12.3587C4.23653 12.2967 4.16347 12.236 4.08983 12.1774C4.05714 12.1504 4.01697 12.1355 3.969 12.1401L3.96998 12.1399ZM3.30074 12.0533C3.30074 12.0533 3.30013 12.0506 3.29992 12.0497C3.33303 12.0426 3.36613 12.0356 3.39923 12.0285C3.437 12.0194 3.48886 12.014 3.48523 11.9667C3.48216 11.9174 3.42881 11.9118 3.38664 11.9105C3.29291 11.907 3.20523 11.939 3.11545 11.9573C3.07943 11.965 3.03935 11.9774 3.04668 12.023C3.05277 12.0631 3.09023 12.0796 3.12748 12.0773C3.18503 12.0744 3.24248 12.0621 3.30074 12.0533ZM3.69391 12.2952C3.68264 12.2637 3.68813 12.2295 3.65431 12.2245C3.61736 12.2192 3.60111 12.251 3.58733 12.2756C3.54269 12.353 3.52956 12.4388 3.50977 12.5222C3.50306 12.551 3.51715 12.5725 3.54789 12.5819C3.57649 12.5909 3.59858 12.5758 3.61026 12.5553C3.65854 12.4715 3.70016 12.3853 3.69509 12.2959L3.69391 12.2952ZM3.58601 11.5577C3.59405 11.6154 3.619 11.6666 3.6459 11.7173C3.65804 11.7393 3.6728 11.7681 3.70513 11.7621C3.74505 11.7536 3.74116 11.7186 3.73911 11.6917C3.72882 11.5884 3.67728 11.4967 3.65356 11.3971C3.64885 11.3765 3.63209 11.3612 3.60678 11.3666C3.58633 11.371 3.57813 11.3888 3.57598 11.4062C3.56931 11.4576 3.57084 11.5091 3.58621 11.5586L3.58601 11.5577Z" fill="white"/>
<path d="M23.3463 4.8502C23.1795 4.90878 23.016 4.88956 22.8547 4.88149C22.7233 4.87482 22.5918 4.85217 22.4597 4.87026C22.4399 4.87249 22.4188 4.87402 22.3991 4.88048C22.3623 4.89058 22.3212 4.90508 22.3192 4.94512C22.318 4.99138 22.3655 4.99863 22.4002 5.00085C22.5282 5.01164 22.6557 5.02044 22.7848 4.99996C22.9888 4.96749 23.1915 4.92683 23.4006 4.96237C23.599 4.99655 23.7725 5.08135 23.9292 5.19001C24.1199 5.3224 24.1825 5.51344 24.1297 5.73296C24.1035 5.84159 24.0295 5.92275 23.9197 5.96675C23.8699 5.98681 23.8522 6.00769 23.8627 6.05927C23.8991 6.25003 23.7558 6.41642 23.5439 6.43719C23.2876 6.46159 23.0724 6.37007 22.8752 6.23517C22.6026 6.04833 22.4354 5.78668 22.3162 5.4948C22.2838 5.41505 22.2533 5.33374 22.2177 5.25485C22.2021 5.22071 22.1783 5.17811 22.1293 5.1969C22.0834 5.21482 22.1069 5.25643 22.1112 5.29049C22.1358 5.49518 22.2889 5.63469 22.3937 5.79921C22.6506 6.20495 22.6378 6.66656 22.1865 6.98364C22.0736 7.06372 21.9655 7.01224 21.876 6.95457C21.7911 6.90099 21.7383 6.89518 21.6585 6.96406C21.5562 7.053 21.3899 7.02813 21.2788 6.90806C21.094 6.70676 21.0167 6.46529 21.0447 6.19922C21.0762 5.90654 21.2054 5.66074 21.4652 5.47734C21.5734 5.40067 21.6663 5.30258 21.7638 5.21282C21.7995 5.17953 21.8493 5.14023 21.7955 5.092C21.7417 5.04377 21.6948 5.08546 21.6591 5.12624C21.5458 5.25555 21.446 5.3961 21.322 5.51557C21.0407 5.78494 20.6979 5.8982 20.3017 5.83606C20.1649 5.81485 20.0511 5.74784 19.9577 5.6496C19.8731 5.56178 19.8567 5.46695 19.9067 5.3582C19.9153 5.3409 19.9226 5.3229 19.9322 5.30531C19.9825 5.22103 20.0215 5.1484 19.8808 5.09836C19.8034 5.07048 19.7896 4.98031 19.8098 4.90537C19.85 4.75551 19.934 4.63102 20.0787 4.54327C20.4703 4.30557 20.86 4.31824 21.2522 4.51817C21.3937 4.59041 21.5372 4.66208 21.6695 4.74965C21.6964 4.7679 21.7277 4.78174 21.7589 4.79133C21.7812 4.79801 21.8081 4.79277 21.8205 4.76909C21.8316 4.74894 21.8177 4.73247 21.8055 4.71768C21.7521 4.65544 21.6892 4.60329 21.6096 4.57174C21.557 4.55094 21.5035 4.52718 21.449 4.51544C20.9908 4.4201 20.7873 4.11183 20.6924 3.71288C20.6618 3.5846 20.6876 3.45901 20.7641 3.34403C20.8565 3.2055 20.9801 3.13101 21.1574 3.16247C21.2028 3.1703 21.2475 3.18364 21.2814 3.12844C21.3672 2.99065 21.5312 2.91468 21.6959 2.94211C21.8439 2.96665 21.9895 3.01426 22.0892 3.12251C22.3799 3.43783 22.53 3.81202 22.2815 4.19735C22.2111 4.30635 22.1654 4.42993 22.1101 4.54762C22.0866 4.59569 22.0637 4.65324 22.1334 4.67791C22.203 4.70258 22.2414 4.65146 22.2608 4.59704C22.3198 4.42601 22.3816 4.25637 22.4247 4.08118C22.5102 3.7363 22.7276 3.50475 23.0912 3.40072C23.1606 3.38168 23.2322 3.37805 23.3028 3.38645C23.4487 3.40408 23.5615 3.46388 23.59 3.61197C23.6081 3.70523 23.6569 3.75165 23.7605 3.76808C23.9163 3.79258 24.0254 3.92497 24.0287 4.07248C24.0352 4.3163 23.9048 4.5037 23.7204 4.65785C23.6118 4.74852 23.4856 4.82585 23.3433 4.84781L23.3463 4.8502ZM22.4404 4.77305C22.5361 4.75855 22.5976 4.6776 22.6781 4.62668C22.7211 4.59887 22.7528 4.56349 22.7217 4.51542C22.689 4.46566 22.6355 4.48461 22.5953 4.50632C22.5074 4.55501 22.4232 4.60906 22.3394 4.6641C22.3032 4.68791 22.263 4.72136 22.2852 4.76651C22.31 4.81631 22.3604 4.79073 22.4026 4.78343C22.412 4.78084 22.4226 4.77795 22.4404 4.77305ZM22.2891 5.07937C22.2387 5.09321 22.2197 5.12938 22.2581 5.16369C22.3655 5.25917 22.4798 5.3474 22.6174 5.40255C22.6457 5.414 22.6801 5.41524 22.7 5.38628C22.7251 5.35163 22.7001 5.32432 22.6748 5.30352C22.5922 5.23861 22.5079 5.17525 22.4231 5.11417C22.3853 5.08608 22.3403 5.07175 22.2881 5.07966L22.2891 5.07937ZM21.5502 5.02157C21.5502 5.02157 21.5493 5.01861 21.549 5.01762C21.5848 5.00781 21.6205 4.99801 21.6562 4.9882C21.6969 4.97596 21.7533 4.9669 21.746 4.91446C21.7391 4.85976 21.6803 4.85667 21.634 4.85762C21.5311 4.85915 21.4374 4.89981 21.3404 4.92536C21.3015 4.93603 21.2585 4.95209 21.2698 5.00239C21.2793 5.04675 21.3215 5.06294 21.3622 5.0582C21.425 5.05165 21.487 5.03463 21.5502 5.02157ZM21.998 5.26817C21.9834 5.23373 21.9869 5.19538 21.9495 5.19176C21.9087 5.18801 21.8932 5.22431 21.8799 5.25252C21.8365 5.3413 21.8283 5.43752 21.8126 5.53153C21.8073 5.56395 21.8242 5.58705 21.8586 5.59579C21.8905 5.6041 21.9136 5.58602 21.925 5.56262C21.9718 5.46647 22.0112 5.3681 21.9993 5.26887L21.998 5.26817ZM21.8271 4.45334C21.84 4.51707 21.871 4.57264 21.9041 4.62763C21.9189 4.65131 21.9372 4.68262 21.9721 4.67409C22.0152 4.66226 22.0085 4.62354 22.0043 4.59372C21.9857 4.47925 21.9227 4.38014 21.8896 4.27069C21.883 4.24795 21.8635 4.23193 21.8362 4.23943C21.8141 4.24548 21.8064 4.26575 21.8053 4.28528C21.8017 4.34287 21.807 4.40012 21.8274 4.45433L21.8271 4.45334Z" fill="white"/>
<path d="M11.6873 10.9461C11.4614 11.0064 11.2683 10.973 11.0567 10.9461C10.8845 10.924 10.6937 10.976 10.5179 10.9865C10.4916 10.9874 10.4636 10.9873 10.437 10.9938C10.3874 11.0034 10.3317 11.0184 10.3248 11.0709C10.3182 11.1317 10.3954 11.0954 10.4409 11.1018C10.6083 11.1289 10.83 11.1157 11.0022 11.1018C11.2743 11.0796 11.5166 11.0339 11.7881 11.1018C12.0457 11.1668 12.2143 11.3049 12.4089 11.4638C12.6458 11.6574 12.7172 12.0072 12.624 12.291C12.5778 12.4313 12.4718 12.5307 12.3225 12.5776C12.2548 12.599 12.2292 12.6247 12.2375 12.6937C12.2649 12.9485 12.0583 13.1531 11.7771 13.1591C11.437 13.1653 11.1635 13.0231 10.9183 12.8256C10.5795 12.5521 10.3875 12.1907 10.2618 11.7943C10.2277 11.6861 10.1962 11.5759 10.1579 11.4685C10.141 11.4219 10.1143 11.3635 10.0477 11.3832C9.9854 11.4022 10.0119 11.4594 10.0138 11.5046C10.0242 11.7766 10.2351 11.963 10.3554 12.1902C10.6502 12.7503 10.5594 13.3696 9.93115 13.7416C9.77394 13.8357 9.63709 13.7569 9.52544 13.672C9.41941 13.5929 9.35052 13.5799 9.23805 13.6625C9.09375 13.7693 8.87757 13.7198 8.74415 13.5505C8.52245 13.2668 8.4466 12.941 8.51194 12.5935C8.58486 12.2113 8.78138 11.9007 9.14319 11.6855C9.29388 11.5954 9.42667 11.4757 9.56476 11.3673C9.61534 11.3271 9.68518 11.2804 9.6195 11.2114C9.55382 11.1425 9.48763 11.1927 9.43613 11.2427C9.27312 11.4016 9.12668 11.5766 8.95047 11.7213C8.55118 12.0476 8.08772 12.1622 7.57268 12.0404C7.39489 11.9986 7.22733 11.8451 7.11491 11.7063C7.01285 11.5821 7.00154 11.4556 7.07905 11.3175C7.0922 11.2955 7.10366 11.2726 7.11822 11.2504C7.19354 11.1445 7.25266 11.0528 7.07286 10.9727C6.97395 10.9282 6.96542 10.8081 6.99998 10.7114C7.06909 10.5182 7.19308 10.3627 7.39302 10.2618C7.93414 9.98835 8.47084 10.0982 8.96573 10.401C9.14421 10.5104 9.32552 10.6193 9.4903 10.7479C9.52375 10.7747 9.56347 10.7961 9.6035 10.8118C9.63226 10.8229 9.66818 10.8187 9.68703 10.7888C9.70388 10.7634 9.68736 10.7403 9.6728 10.7196C9.60921 10.6322 9.53198 10.5572 9.43056 10.5076C9.3635 10.475 9.29563 10.4383 9.2251 10.4173C8.63211 10.2455 8.38701 9.73453 8.30492 9.19967C8.27836 9.02768 8.32579 8.86491 8.43896 8.72125C8.5755 8.54817 8.74622 8.46257 8.97619 8.52188C9.03517 8.53677 9.09268 8.55885 9.14317 8.48959C9.27095 8.31682 9.49508 8.23334 9.70898 8.28608C9.90115 8.33332 10.0878 8.41071 10.2074 8.5633C10.5564 9.00782 10.7241 9.60022 10.3554 10.0825C10.251 10.2189 10.1776 10.377 10.0921 10.5264C10.0561 10.5873 10.0197 10.6608 10.1088 10.7003C10.1978 10.7398 10.2539 10.6764 10.2852 10.6067C10.3813 10.3874 10.4809 10.1703 10.5564 9.94398C10.7061 9.49853 10.8491 9.02527 11.339 8.92499C11.4324 8.90693 11.6961 8.9068 11.7881 8.92499C11.9784 8.96292 12.1791 9.1956 12.2006 9.39346C12.2145 9.51809 12.2148 9.54594 12.3494 9.57802C12.5521 9.62602 12.7263 9.74942 12.7149 9.94398C12.6972 10.2657 12.5323 10.5035 12.273 10.6878C12.1203 10.7962 11.8771 10.9315 11.6873 10.9461ZM10.5029 10.8566C10.6304 10.8471 10.7201 10.7467 10.8316 10.6878C10.8912 10.6556 10.9367 10.6122 10.9009 10.5457C10.8632 10.4769 10.7908 10.4965 10.7355 10.521C10.6144 10.5762 10.4978 10.6389 10.3815 10.7029C10.3313 10.7306 10.2748 10.7706 10.2993 10.8323C10.3265 10.9004 10.3957 10.8718 10.4519 10.8664C10.4647 10.8639 10.4788 10.8612 10.5029 10.8566ZM10.2708 11.2446C10.2029 11.2578 10.174 11.3035 10.2209 11.3525C10.352 11.4891 10.493 11.6168 10.6683 11.7033C10.7043 11.7212 10.7495 11.7263 10.7789 11.6902C10.8156 11.6471 10.7856 11.6086 10.7545 11.5787C10.6528 11.4849 10.5485 11.3929 10.4434 11.304C10.3967 11.2632 10.3389 11.2397 10.2694 11.2449L10.2708 11.2446ZM9.30399 11.0939C9.30399 11.0939 9.30317 11.0899 9.3029 11.0886C9.35101 11.0793 9.39912 11.07 9.44724 11.0607C9.50215 11.0487 9.57738 11.0425 9.57332 10.9727C9.57013 10.8999 9.49303 10.8899 9.432 10.8865C9.29638 10.8782 9.16861 10.9222 9.03815 10.9461C8.98579 10.9562 8.92745 10.973 8.9369 11.0404C8.9447 11.0998 8.99852 11.1253 9.05252 11.1232C9.13592 11.1209 9.21941 11.1048 9.30399 11.0939ZM9.86713 11.4638C9.85161 11.417 9.86042 11.3669 9.81158 11.3583C9.75822 11.3493 9.73388 11.3955 9.7133 11.4313C9.64669 11.5438 9.6255 11.6697 9.59473 11.7919C9.58428 11.834 9.60413 11.8662 9.64841 11.8811C9.68958 11.8953 9.72195 11.8738 9.73939 11.8442C9.81142 11.7223 9.87387 11.5967 9.86881 11.4649L9.86713 11.4638ZM9.72964 10.3737C9.73982 10.4589 9.77464 10.5352 9.8123 10.611C9.82932 10.6436 9.84995 10.6867 9.89693 10.679C9.95494 10.6678 9.9502 10.6161 9.94792 10.5764C9.93565 10.4238 9.86335 10.287 9.83154 10.1395C9.82524 10.1089 9.80137 10.0858 9.76458 10.093C9.73486 10.0987 9.72253 10.1246 9.71897 10.1502C9.70801 10.2257 9.70892 10.3016 9.72992 10.375L9.72964 10.3737Z" fill="white"/>
<path d="M27.2809 13.1741C27.0964 13.1279 27.0997 13.1398 26.9624 13.0364C26.8507 12.9521 26.7397 12.9251 26.6116 12.8628C26.5927 12.853 26.5731 12.8418 26.5516 12.836C26.5127 12.8232 26.4671 12.8118 26.44 12.847C26.4095 12.8882 26.4469 12.9231 26.4761 12.9458C26.5823 13.0319 26.9293 13.0871 27.0564 13.1455C27.2571 13.2375 27.4557 13.2828 27.6177 13.4396C27.7712 13.5888 27.773 13.7155 27.8422 13.9073C27.9266 14.1411 27.916 14.2839 27.73 14.4515C27.6378 14.5345 27.329 14.7527 27.2042 14.7272C27.1475 14.7158 27.1185 14.7241 27.0951 14.7772C27.006 14.9719 26.7738 15.0375 26.5735 14.93C26.3318 14.7995 26.1999 14.5883 26.1115 14.3484C25.9896 14.0166 26.0081 13.6796 26.0882 13.3438C26.1103 13.2522 26.1349 13.1602 26.1537 13.0675C26.1616 13.0272 26.1676 12.9744 26.1124 12.9623C26.0605 12.9512 26.0549 13.0029 26.037 13.0364C25.9287 13.2367 25.9753 13.4545 25.9633 13.6661C25.9325 14.1873 25.6279 14.5983 25.0281 14.6171C24.8776 14.6225 24.7596 14.5572 24.7172 14.4515C24.6762 14.3523 24.6886 14.2699 24.5744 14.2848C24.4276 14.3045 24.2966 14.183 24.2748 14.0078C24.2395 13.7152 24.3246 13.4501 24.5182 13.2253C24.7319 12.9786 25.0021 12.8326 25.348 12.821C25.4922 12.8159 25.6365 12.7823 25.7796 12.759C25.8323 12.75 25.9012 12.7441 25.8844 12.6683C25.8675 12.5924 25.7996 12.6023 25.7421 12.618C25.56 12.6679 25.3827 12.7359 25.1973 12.7704C24.7778 12.8472 24.3581 12.9303 24.0478 12.6379C23.9405 12.5372 23.9278 12.224 23.9077 12.0793C23.8887 11.9492 23.9346 11.8534 24.0478 11.7845C24.0663 11.774 24.0841 11.7619 24.1038 11.7517C24.2018 11.7052 24.2823 11.6626 24.1899 11.5334C24.1393 11.462 24.1844 11.372 24.2497 11.316C24.3805 11.204 24.5337 11.1412 24.7172 11.1478C25.2138 11.1654 25.5499 11.4091 25.7691 11.8241C25.8481 11.9739 25.9293 12.1244 25.9905 12.2826C26.0027 12.3152 26.0215 12.3464 26.0429 12.3737C26.0585 12.3931 26.0855 12.4043 26.1115 12.3902C26.1341 12.3786 26.1323 12.3554 26.1309 12.3346C26.1233 12.2464 26.1009 12.1616 26.0506 12.0856C26.0174 12.0353 25.9853 11.9819 25.9446 11.9388C25.6006 11.5794 25.6167 11.1785 25.7864 10.7601C25.8408 10.6255 25.9433 10.5269 26.0839 10.4682C26.2535 10.3976 26.4099 10.4036 26.5464 10.5378C26.5815 10.5719 26.6126 10.6107 26.6775 10.5808C26.8408 10.5069 27.0338 10.5357 27.1618 10.6587C27.2768 10.7691 27.3752 10.899 27.3944 11.0566C27.4509 11.5159 27.3457 11.9447 26.8816 12.1462C26.7502 12.2031 26.6314 12.288 26.5078 12.3618C26.4566 12.3915 26.3998 12.43 26.4456 12.4939C26.4914 12.5578 26.5578 12.5343 26.6094 12.4964C26.7702 12.3765 26.9325 12.2594 27.0818 12.1261C27.3763 11.8642 27.6797 11.4995 28.0668 11.6217C28.1401 11.6458 28.3466 11.7897 28.4036 11.8394C28.5212 11.9423 28.6147 12.1833 28.5458 12.3346C28.5025 12.43 28.5471 12.4158 28.6281 12.4924C28.7502 12.6075 28.6066 12.792 28.5158 12.9278C28.3667 13.1528 28.2151 13.2243 27.9545 13.2543C27.801 13.2718 27.6776 13.2902 27.538 13.2253L27.2809 13.1741ZM26.6563 12.7631C26.75 12.807 26.8557 12.7702 26.9591 12.772C27.0147 12.7723 27.0651 12.7591 27.0683 12.697C27.071 12.6324 27.0117 12.6177 26.9624 12.6134C26.8538 12.6052 26.7452 12.6041 26.6362 12.6041C26.5892 12.6041 26.5324 12.6105 26.5234 12.6647C26.5137 12.7247 26.5744 12.7315 26.6163 12.75C26.6263 12.7533 26.6374 12.7569 26.6563 12.7631ZM26.3282 12.9509C26.2748 12.9334 26.2351 12.9549 26.2472 13.0089C26.2814 13.1594 26.3263 13.3076 26.4127 13.4396C26.4304 13.4668 26.46 13.4885 26.496 13.4741C26.5402 13.4576 26.5354 13.4179 26.5263 13.3839C26.4946 13.2759 26.4604 13.1682 26.4243 13.0622C26.4088 13.0143 26.3782 12.9744 26.3271 12.9505L26.3282 12.9509ZM25.7125 12.4582C25.7125 12.4582 25.7136 12.455 25.714 12.4539C25.7517 12.4663 25.7895 12.4787 25.8273 12.4911C25.871 12.5043 25.9266 12.5296 25.9534 12.4777C25.982 12.424 25.9321 12.3861 25.8906 12.3594C25.7988 12.2995 25.6903 12.2806 25.5884 12.246C25.5473 12.2325 25.4991 12.2214 25.4771 12.2738C25.4574 12.3197 25.4843 12.3595 25.5232 12.3794C25.5828 12.4109 25.6484 12.4324 25.7125 12.4582ZM25.9512 12.9487C25.9602 12.9087 25.9877 12.8761 25.957 12.8505C25.9233 12.8228 25.8866 12.8465 25.8569 12.8641C25.7622 12.9188 25.6938 13.0012 25.6203 13.0771C25.595 13.1034 25.5953 13.1344 25.6201 13.1628C25.643 13.1894 25.6749 13.1868 25.6997 13.1723C25.8022 13.113 25.8994 13.0472 25.9519 12.9501L25.9512 12.9487ZM26.3178 12.1077C26.2888 12.1732 26.2808 12.2421 26.2751 12.3117C26.2732 12.342 26.2694 12.3813 26.3057 12.3944C26.3513 12.4093 26.3699 12.3702 26.3851 12.3406C26.4414 12.2257 26.4487 12.0983 26.489 11.9793C26.4976 11.9547 26.4906 11.9286 26.4617 11.9191C26.4384 11.9114 26.4187 11.9252 26.4053 11.9423C26.3655 11.9924 26.3339 12.0475 26.3175 12.1088L26.3178 12.1077Z" fill="white"/>
<path d="M23.2197 10.2054C23.1286 10.2086 23.1318 10.2136 23.0544 10.1844C22.9913 10.1605 22.9366 10.1628 22.8691 10.1512C22.8591 10.1492 22.8486 10.1466 22.8379 10.1468C22.8183 10.1461 22.7958 10.1469 22.7883 10.1666C22.7801 10.1895 22.8021 10.2006 22.8187 10.2071C22.8795 10.2325 23.0463 10.212 23.1127 10.2219C23.2177 10.2376 23.3151 10.2321 23.4113 10.2826C23.5027 10.3307 23.5213 10.3885 23.58 10.4673C23.6515 10.5633 23.6668 10.6301 23.605 10.7316C23.5745 10.7817 23.4636 10.9226 23.4028 10.9274C23.3752 10.9296 23.3631 10.9373 23.3598 10.9647C23.3464 11.0657 23.2492 11.1264 23.1423 11.1036C23.0131 11.0758 22.923 10.9964 22.8488 10.8981C22.7462 10.7621 22.7074 10.6053 22.6969 10.4408C22.6941 10.3959 22.6925 10.3504 22.6881 10.3055C22.686 10.286 22.6814 10.261 22.6543 10.2627C22.629 10.2645 22.6337 10.2889 22.6302 10.3066C22.6087 10.4127 22.6607 10.5064 22.6849 10.605C22.7441 10.8479 22.6623 11.0765 22.39 11.1644C22.3218 11.1868 22.2585 11.1724 22.2242 11.1296C22.1915 11.0895 22.1856 11.0501 22.1354 11.072C22.0708 11.1005 21.9937 11.062 21.9591 10.9847C21.9018 10.8552 21.9035 10.7224 21.9607 10.5939C22.0239 10.4526 22.1273 10.3499 22.2842 10.2989C22.3495 10.2776 22.4109 10.2431 22.4733 10.2135C22.4961 10.2024 22.5269 10.1906 22.5085 10.1581C22.4901 10.1256 22.4604 10.1391 22.4363 10.1538C22.3598 10.2007 22.2881 10.2554 22.2079 10.2956C22.0265 10.3862 21.8458 10.4798 21.6625 10.3868C21.5992 10.3548 21.4167 10.2772 21.3871 10.2135C21.3602 10.1564 21.3653 10.0136 21.4075 9.96713C21.4 9.97441 21.4146 9.95982 21.4075 9.96713C21.4459 9.93289 21.468 9.9053 21.4075 9.8583C21.3743 9.83227 21.4361 9.68783 21.4582 9.65354C21.5024 9.58496 21.5775 9.46658 21.6625 9.44536C21.8926 9.38784 22.1782 9.62514 22.337 9.78637C22.3943 9.84459 22.4527 9.90285 22.5029 9.9673C22.5131 9.98062 22.5261 9.99243 22.5398 10.0021C22.5496 10.0089 22.5636 10.0105 22.5735 10.0006C22.5823 9.9923 22.5782 9.9819 22.5746 9.97259C22.5587 9.93315 22.5365 9.89725 22.5028 9.86904C22.4805 9.85041 22.4583 9.83017 22.4336 9.81578C22.2254 9.69649 22.1765 9.51062 22.1954 9.29645C22.2014 9.22756 22.2345 9.16884 22.2907 9.12337C22.3585 9.0686 22.4311 9.05071 22.5125 9.09415C22.5334 9.10516 22.5531 9.11883 22.5786 9.09655C22.6431 9.04112 22.9397 8.95115 23.0156 8.99061C23.0839 9.02601 23.1161 9.15062 23.1471 9.2203C23.2375 9.42332 23.0766 9.63339 22.8922 9.78705C22.84 9.83051 22.7974 9.88511 22.7512 9.93526C22.7319 9.95562 22.7112 9.98078 22.7412 10.004C22.7712 10.0272 22.7983 10.0077 22.8167 9.98352C22.8735 9.9073 23.0054 9.85929 23.0552 9.77849C23.1533 9.61955 23.3459 9.41809 23.5405 9.42298C23.5775 9.42432 23.6197 9.40774 23.6528 9.42298C23.7212 9.45461 23.7754 9.56221 23.7651 9.64066C23.7587 9.69009 23.8023 9.75408 23.8502 9.77849C23.9223 9.81511 23.9757 9.90265 23.9532 9.97688C23.9165 10.0997 23.7837 10.1738 23.6685 10.2219C23.6006 10.2503 23.4844 10.2332 23.4113 10.2219L23.2197 10.2054ZM22.8756 10.0996C22.9247 10.1073 22.968 10.0765 23.0157 10.0636C23.0412 10.0564 23.0625 10.0437 23.0552 10.0148C23.0473 9.98486 23.0181 9.98596 22.9949 9.99052C22.944 10.0011 22.894 10.0149 22.8441 10.0293C22.8225 10.0356 22.7974 10.046 22.8009 10.072C22.8049 10.1008 22.8337 10.0959 22.8554 10.0988C22.8605 10.099 22.8661 10.0992 22.8756 10.0996ZM22.7516 10.229C22.7247 10.228 22.7096 10.2431 22.7227 10.2662C22.7595 10.3307 22.8009 10.3927 22.8591 10.4418C22.871 10.4519 22.8876 10.4579 22.9021 10.4466C22.92 10.4332 22.9123 10.4156 22.9033 10.4013C22.8736 10.3559 22.8428 10.3111 22.8113 10.2673C22.7975 10.2474 22.7779 10.2332 22.7511 10.2289L22.7516 10.229ZM22.4002 10.0845C22.4002 10.0845 22.4003 10.0829 22.4003 10.0823C22.4193 10.083 22.4384 10.0837 22.4575 10.0844C22.4793 10.0847 22.5084 10.089 22.5133 10.0616C22.5189 10.0332 22.4907 10.0225 22.468 10.0157C22.4175 10.0004 22.3651 10.006 22.3135 10.0036C22.2928 10.0029 22.2691 10.0042 22.2664 10.0311C22.2638 10.0547 22.2818 10.0694 22.3024 10.0734C22.3341 10.08 22.3672 10.0811 22.4002 10.0845ZM22.5785 10.2778C22.5771 10.2583 22.5851 10.2397 22.5674 10.232C22.5481 10.2237 22.5346 10.2395 22.5234 10.2515C22.4877 10.289 22.468 10.3358 22.4449 10.3803C22.437 10.3957 22.4415 10.4099 22.4569 10.4197C22.4711 10.4288 22.4854 10.4234 22.4947 10.4135C22.5333 10.3728 22.5687 10.3298 22.5791 10.2783L22.5785 10.2778ZM22.6284 9.8439C22.6243 9.87776 22.6303 9.91037 22.6375 9.94302C22.6409 9.95718 22.6446 9.97567 22.6631 9.97688C22.6861 9.97771 22.6891 9.95731 22.692 9.94175C22.7016 9.88164 22.687 9.82227 22.6888 9.76241C22.6893 9.75001 22.6824 9.73896 22.6678 9.73843C22.656 9.73801 22.649 9.74693 22.6452 9.75651C22.634 9.78472 22.6273 9.81416 22.6284 9.84443L22.6284 9.8439Z" fill="white"/>
<path d="M24.5156 20.9372C24.485 21.0499 24.4131 21.1292 24.355 21.1144C24.2969 21.0996 24.2745 20.9962 24.3051 20.8835C24.3168 20.8406 24.3414 20.8182 24.362 20.7883C24.3955 20.7397 24.4297 20.6971 24.4657 20.7063C24.4893 20.7123 24.5049 20.7542 24.5156 20.784C24.5313 20.8278 24.5338 20.8701 24.5156 20.9372Z" fill="#181818"/>
<path d="M24.314 19.8149C24.2989 19.6993 24.3301 19.6003 24.3837 19.5937C24.4372 19.5871 24.4929 19.6755 24.508 19.7911C24.5137 19.8352 24.5013 19.8647 24.4949 19.8997C24.4846 19.9567 24.4714 20.0083 24.4383 20.0124C24.4166 20.015 24.3885 19.9815 24.369 19.9575C24.3403 19.9222 24.3229 19.8837 24.314 19.8149Z" fill="#101010"/>
</g>
<defs>
<clipPath id="clip0_576_383">
<rect width="30" height="23" fill="white"/>
</clipPath>
</defs>
</svg>
